<?xml version="1.0" standalone="no"?>
<!DOCTYPE svg PUBLIC "-//W3C//DTD SVG 1.1//EN" "http://www.w3.org/Graphics/SVG/1.1/DTD/svg11.dtd" >
<svg xmlns="http://www.w3.org/2000/svg">
<metadata>Generated by IcoMoon</metadata>
<defs>
<font id="icomoon" horiz-adv-x="1024">
<font-face units-per-em="1024" ascent="960" descent="-64" />
<missing-glyph horiz-adv-x="1024" />
<glyph unicode="&#x20;" horiz-adv-x="512" d="" />
<glyph unicode="&#xe900;" glyph-name="bell" d="M196.8 812.8c-52.8-54.4-120-185.6-107.2-208 16-27.2 36.8-11.2 54.4 41.6 9.6 30.4 46.4 88 80 126.4 35.2 40 64 76.8 64 81.6 0 25.6-46.4 4.8-91.2-41.6zM736 854.4c0-4.8 28.8-41.6 64-81.6 33.6-38.4 70.4-96 80-126.4 17.6-52.8 38.4-68.8 54.4-41.6 12.8 22.4-54.4 153.6-107.2 208-44.8 46.4-91.2 67.2-91.2 41.6zM368 748.8c-28.8-20.8-67.2-56-83.2-78.4-43.2-57.6-142.4-456-124.8-502.4 14.4-36.8 89.6-72 155.2-72 24 0 59.2-22.4 91.2-56 73.6-76.8 137.6-76.8 211.2 0 32 33.6 67.2 56 91.2 56 65.6 0 140.8 35.2 155.2 72 17.6 46.4-81.6 444.8-124.8 502.4-57.6 78.4-128 113.6-227.2 113.6-68.8 0-104-9.6-144-35.2zM635.2 704c68.8-41.6 89.6-88 147.2-313.6l49.6-190.4-33.6-27.2c-28.8-25.6-68.8-28.8-286.4-28.8s-257.6 3.2-286.4 27.2l-33.6 28.8 49.6 190.4c25.6 105.6 59.2 211.2 72 236.8 33.6 65.6 112 108.8 198.4 108.8 43.2 0 92.8-12.8 123.2-32zM592 80c0-32-76.8-54.4-120-35.2-64 28.8-46.4 51.2 40 51.2 44.8 0 80-8 80-16z" />
<glyph unicode="&#xe901;" glyph-name="cate" d="M83.2 859.733c-17.067-19.2-29.867-85.333-29.867-157.867 0-166.4 34.133-200.533 202.667-200.533s202.667 34.133 202.667 200.533c0 170.667-23.467 194.133-202.667 194.133-108.8 0-151.467-8.533-172.8-36.267zM384 706.133c0-136.533-12.8-151.467-128-151.467s-128 14.933-128 151.467v125.867h256v-125.867zM595.2 859.733c-17.067-19.2-29.867-85.333-29.867-157.867 0-166.4 34.133-200.533 202.667-200.533s202.667 34.133 202.667 200.533c0 170.667-23.467 194.133-202.667 194.133-108.8 0-151.467-8.533-172.8-36.267zM896 706.133c0-136.533-12.8-151.467-128-151.467s-128 14.933-128 151.467v125.867h256v-125.867zM83.2 347.733c-44.8-53.333-38.4-273.067 8.533-320 53.333-53.333 275.2-53.333 328.533 0 46.933 46.933 53.333 266.667 8.533 320-40.533 51.2-305.067 51.2-345.6 0zM384 194.133c0-136.533-12.8-151.467-128-151.467s-128 14.933-128 151.467v125.867h256v-125.867zM629.333 330.667c-74.667-72.533-74.667-204.8 0-277.333 72.533-74.667 204.8-74.667 277.333 0 40.533 38.4 53.333 74.667 53.333 138.667 0 119.467-72.533 192-192 192-64 0-100.267-12.8-138.667-53.333zM861.867 285.867c42.667-42.667 42.667-145.067 0-187.733s-145.067-42.667-187.733 0c-42.667 42.667-42.667 145.067 0 187.733 17.067 19.2 59.733 34.133 93.867 34.133s76.8-14.933 93.867-34.133z" />
<glyph unicode="&#xe902;" glyph-name="home" d="M317.867 787.2c-268.8-187.733-253.867-160-253.867-448 0-307.2 6.4-317.867 204.8-317.867h136.533v341.333h213.333v-341.333h136.533c198.4 0 204.8 10.667 204.8 317.867 0 232.533-4.267 253.867-46.933 294.4-93.867 85.333-364.8 262.4-401.067 262.4-19.2 0-106.667-49.067-194.133-108.8zM701.867 736c91.733-64 179.2-130.133 192-147.2 17.067-19.2 23.467-110.933 19.2-270.933l-6.4-243.2-245.333-12.8v147.2c0 83.2-10.667 155.733-25.6 170.667-27.733 27.733-181.333 34.133-238.933 12.8-27.733-10.667-34.133-46.933-34.133-172.8v-157.867l-245.333 12.8v509.867l181.333 134.4c100.267 72.533 194.133 132.267 209.067 132.267 14.933 2.133 102.4-51.2 194.133-115.2z" />
<glyph unicode="&#xe903;" glyph-name="user" d="M416 836.8c-76.8-40-110.4-132.8-81.6-227.2 24-83.2 80-121.6 180.8-121.6 64 0 84.8 8 128 52.8 44.8 44.8 52.8 62.4 52.8 131.2 0 67.2-8 86.4-49.6 129.6-62.4 62.4-150.4 76.8-230.4 35.2zM600 760c80-78.4 24-216-88-216-65.6 0-128 62.4-128 128s62.4 128 128 128c30.4 0 64-14.4 88-40zM332.8 385.6c-168-54.4-230.4-126.4-188.8-224 38.4-94.4 267.2-148.8 484.8-118.4 188.8 27.2 267.2 80 267.2 182.4 0 86.4-216 192-390.4 188.8-44.8 0-121.6-12.8-172.8-28.8zM729.6 300.8c131.2-64 136-123.2 12.8-169.6-84.8-32-376-32-460.8 0-76.8 28.8-104 65.6-80 105.6 19.2 30.4 113.6 81.6 188.8 100.8 84.8 22.4 256 3.2 339.2-36.8z" />
<glyph unicode="&#xe904;" glyph-name="cart" d="M8.192 896.512c-22.528-36.864 26.624-69.632 61.44-40.96 16.384 14.336 61.44 22.528 98.304 18.432l67.584-6.144 94.208-370.688c51.2-204.8 102.4-385.024 112.64-399.36 8.192-14.336 16.384-49.152 16.384-77.824 4.096-104.448 137.216-108.544 151.552-4.096 8.192 55.296 106.496 63.488 106.496 6.144 0-77.824 94.208-114.688 143.36-55.296 14.336 16.384 20.48 51.2 12.288 81.92-12.288 49.152-18.432 51.2-192.512 51.2-186.368 0-229.376 16.384-229.376 86.016 0 32.768 20.48 36.864 190.464 36.864h190.464l67.584 190.464c38.912 102.4 73.728 200.704 79.872 215.040 6.144 18.432-65.536 24.576-319.488 24.576h-327.68l-24.576 102.4c-14.336 57.344-38.912 116.736-55.296 133.12-34.816 36.864-221.184 40.96-243.712 8.192zM921.6 595.456c0-8.192-26.624-83.968-59.392-167.936l-57.344-153.6-372.736-12.288-22.528 88.064c-12.288 49.152-30.72 120.832-43.008 159.744-10.24 38.912-18.432 77.824-18.432 88.064 0 8.192 129.024 14.336 286.72 14.336s286.72-6.144 286.72-16.384zM565.248 36.352c20.48-34.816-26.624-73.728-55.296-45.056-24.576 24.576-8.192 67.584 22.528 67.584 10.24 0 24.576-10.24 32.768-22.528zM831.488 36.352c20.48-34.816-26.624-73.728-55.296-45.056-24.576 24.576-8.192 67.584 22.528 67.584 10.24 0 24.576-10.24 32.768-22.528z" />
<glyph unicode="&#xe905;" glyph-name="warning" d="M172.8 650.667l-110.933-202.667 110.933-202.667 113.067-202.667h452.267l113.067 202.667 110.933 202.667-110.933 202.667-113.067 202.667h-452.267l-113.067-202.667zM533.333 522.667c0-78.933-8.533-138.667-21.333-138.667s-21.333 59.733-21.333 138.667c0 78.933 8.533 138.667 21.333 138.667s21.333-59.733 21.333-138.667zM546.133 296.533c21.333-36.267-27.733-76.8-57.6-46.933-25.6 25.6-8.533 70.4 23.467 70.4 10.667 0 25.6-10.667 34.133-23.467z" />
<glyph unicode="&#xe906;" glyph-name="order" d="M204.8 819.2c-49.067-46.933-51.2-477.867-2.133-477.867 25.6 0 32 38.4 32 224v224h552.533l6.4-174.933c8.533-228.267 46.933-230.4 55.467-4.267 8.533 243.2 8.533 243.2-337.067 243.2-221.867 0-281.6-6.4-307.2-34.133zM426.667 650.667c0-25.6 29.867-32 138.667-32s138.667 6.4 138.667 32c0 25.6-29.867 32-138.667 32s-138.667-6.4-138.667-32zM426.667 522.667c0-25.6 29.867-32 138.667-32s138.667 6.4 138.667 32c0 25.6-29.867 32-138.667 32s-138.667-6.4-138.667-32zM426.667 394.667c0-25.6 29.867-32 138.667-32s138.667 6.4 138.667 32c0 25.6-29.867 32-138.667 32s-138.667-6.4-138.667-32zM789.333 258.133c0-68.267-10.667-113.067-34.133-132.267-42.667-36.267-98.133-2.133-115.2 68.267-12.8 51.2-14.933 51.2-266.667 51.2h-256l-6.4-57.6c-10.667-93.867 59.733-145.067 198.4-145.067 89.6 0 117.333 6.4 117.333 32 0 23.467-25.6 32-102.4 32-93.867 0-153.6 25.6-153.6 68.267 0 8.533 91.733 17.067 202.667 17.067 166.4 0 202.667-6.4 202.667-32 0-49.067 78.933-117.333 138.667-117.333 91.733 0 138.667 70.4 138.667 202.667 0 89.6-6.4 117.333-32 117.333-23.467 0-32-25.6-32-104.533z" />
<glyph unicode="&#xe907;" glyph-name="voucher" d="M944.64 156.16c8.96 8.96 15.36 53.76 15.36 113.92 0 94.72-1.28 98.56-32 106.24-71.68 17.92-71.68 125.44 0 143.36 30.72 7.68 32 11.52 32 106.24 0 60.16-6.4 104.96-15.36 113.92-21.76 21.76-843.52 21.76-865.28 0-8.96-8.96-15.36-53.76-15.36-113.92 0-94.72 1.28-98.56 32-106.24 71.68-17.92 71.68-125.44 0-143.36-30.72-7.68-32-11.52-32-106.24 0-60.16 6.4-104.96 15.36-113.92 21.76-21.76 843.52-21.76 865.28 0zM92.16 258.56c-3.84 84.48-2.56 85.76 34.56 106.24 69.12 34.56 69.12 131.84 0 166.4-37.12 20.48-38.4 21.76-34.56 106.24l3.84 85.76h832l3.84-85.76c3.84-84.48 2.56-85.76-34.56-106.24-69.12-34.56-69.12-131.84-1.28-166.4 35.84-19.2 38.4-24.32 38.4-101.12 0-43.52-3.84-83.2-7.68-88.32-5.12-3.84-193.28-6.4-419.84-5.12l-410.88 2.56-3.84 85.76zM716.8 217.6c0 6.4-6.4 12.8-12.8 12.8-7.68 0-12.8-6.4-12.8-12.8 0-7.68 5.12-12.8 12.8-12.8 6.4 0 12.8 5.12 12.8 12.8zM716.8 268.8c0 6.4-6.4 12.8-12.8 12.8-7.68 0-12.8-6.4-12.8-12.8 0-7.68 5.12-12.8 12.8-12.8 6.4 0 12.8 5.12 12.8 12.8zM576 318.72c29.44 57.6 1.28 116.48-57.6 116.48-49.92 0-79.36-88.32-42.24-125.44 24.32-24.32 84.48-19.2 99.84 8.96zM501.76 360.96c3.84 46.080 38.4 58.88 46.080 19.2 6.4-33.28-6.4-60.16-29.44-60.16-15.36 0-19.2 10.24-16.64 40.96zM423.68 405.76c43.52 62.72 94.72 131.84 111.36 153.6 24.32 33.28 26.88 42.24 11.52 42.24-10.24 0-65.28-61.44-120.32-136.96-125.44-170.24-124.16-170.24-102.4-170.24 10.24 0 55.040 49.92 99.84 111.36zM716.8 320c0 6.4-6.4 12.8-12.8 12.8-7.68 0-12.8-6.4-12.8-12.8 0-7.68 5.12-12.8 12.8-12.8 6.4 0 12.8 5.12 12.8 12.8zM716.8 371.2c0 6.4-6.4 12.8-12.8 12.8-7.68 0-12.8-6.4-12.8-12.8 0-7.68 5.12-12.8 12.8-12.8 6.4 0 12.8 5.12 12.8 12.8zM716.8 422.4c0 6.4-6.4 12.8-12.8 12.8-7.68 0-12.8-6.4-12.8-12.8 0-7.68 5.12-12.8 12.8-12.8 6.4 0 12.8 5.12 12.8 12.8zM716.8 473.6c0 6.4-6.4 12.8-12.8 12.8-7.68 0-12.8-6.4-12.8-12.8 0-7.68 5.12-12.8 12.8-12.8 6.4 0 12.8 5.12 12.8 12.8zM396.8 485.12c17.92 33.28 16.64 81.92-2.56 101.12-8.96 8.96-30.72 15.36-51.2 15.36-37.12 0-61.44-29.44-61.44-75.52 0-58.88 88.32-89.6 115.2-40.96zM326.4 532.48c0 24.32 7.68 38.4 20.48 40.96 25.6 5.12 38.4-35.84 21.76-66.56-17.92-32-42.24-17.92-42.24 25.6zM716.8 524.8c0 6.4-6.4 12.8-12.8 12.8-7.68 0-12.8-6.4-12.8-12.8 0-7.68 5.12-12.8 12.8-12.8 6.4 0 12.8 5.12 12.8 12.8zM716.8 576c0 6.4-6.4 12.8-12.8 12.8-7.68 0-12.8-6.4-12.8-12.8 0-7.68 5.12-12.8 12.8-12.8 6.4 0 12.8 5.12 12.8 12.8zM716.8 627.2c0 6.4-6.4 12.8-12.8 12.8-7.68 0-12.8-6.4-12.8-12.8 0-7.68 5.12-12.8 12.8-12.8 6.4 0 12.8 5.12 12.8 12.8zM716.8 678.4c0 6.4-6.4 12.8-12.8 12.8-7.68 0-12.8-6.4-12.8-12.8 0-7.68 5.12-12.8 12.8-12.8 6.4 0 12.8 5.12 12.8 12.8z" />
<glyph unicode="&#xe908;" glyph-name="ship" d="M0 736c0-19.2 121.6-32 304-32h304v-480h-92.8c-51.2 0-108.8 22.4-131.2 48-51.2 64-124.8 60.8-198.4-6.4-54.4-48-57.6-48-57.6 32 0 48-12.8 86.4-32 86.4-16 0-32-51.2-32-112 0-73.6 16-112 44.8-112 22.4 0 60.8-22.4 83.2-48 51.2-60.8 140.8-60.8 192 0 51.2 64 268.8 64 320 0 51.2-60.8 140.8-60.8 192 0 22.4 25.6 60.8 48 83.2 48 54.4 0 60.8 233.6 9.6 380.8-32 89.6-48 99.2-176 99.2-118.4 0-140.8 9.6-140.8 64 0 60.8-22.4 64-336 64-201.6 0-336-12.8-336-32zM928 492.8c19.2-44.8 32-124.8 32-179.2 0-96-3.2-96-57.6-48-70.4 64-137.6 70.4-192 16-28.8-28.8-38.4 0-38.4 128v166.4h112c92.8 0 118.4-16 144-83.2zM339.2 220.8c32-54.4-41.6-115.2-86.4-70.4-38.4 38.4-12.8 105.6 35.2 105.6 16 0 38.4-16 51.2-35.2zM851.2 220.8c32-54.4-41.6-115.2-86.4-70.4-38.4 38.4-12.8 105.6 35.2 105.6 16 0 38.4-16 51.2-35.2zM32 608c0-16 64-32 144-32s144 16 144 32c0 19.2-64 32-144 32s-144-12.8-144-32zM64 480c0-16 44.8-32 96-32 54.4 0 96 16 96 32 0 19.2-41.6 32-96 32-51.2 0-96-12.8-96-32z" />
<glyph unicode="&#xe909;" glyph-name="search" d="M328 809.6c-64-27.2-152-115.2-177.6-180.8-30.4-72-27.2-193.6 8-268.8 83.2-177.6 283.2-248 459.2-160l78.4 40 91.2-91.2c51.2-49.6 97.6-86.4 104-80s-30.4 52.8-80 104l-91.2 91.2 40 78.4c116.8 230.4-48 491.2-307.2 489.6-41.6-1.6-99.2-11.2-124.8-22.4zM627.2 752c168-113.6 185.6-347.2 36.8-476.8-201.6-177.6-504-41.6-504 227.2 0 78.4 38.4 174.4 91.2 220.8 92.8 84.8 275.2 99.2 376 28.8z" />
<glyph unicode="&#xe90a;" glyph-name="google" d="M341.333 817.067c-93.867-49.067-128-83.2-177.067-177.067-76.8-147.2-72.533-273.067 19.2-420.267 183.467-294.4 637.867-247.467 736 78.933 34.133 115.2 12.8 183.467-68.267 211.2-132.267 44.8-288 23.467-307.2-44.8-21.333-61.867 25.6-100.267 134.4-106.667l100.267-6.4-81.067-83.2c-74.667-76.8-85.333-81.067-177.067-70.4-147.2 14.933-232.533 108.8-232.533 249.6 0 85.333 10.667 115.2 61.867 168.533 74.667 78.933 183.467 104.533 283.733 68.267 85.333-32 134.4-4.267 134.4 74.667 0 61.867-57.6 93.867-198.4 108.8-93.867 8.533-130.133 0-228.267-51.2z" />
<glyph unicode="&#xe90b;" glyph-name="msg" d="M464.6 958c-119.6-11.6-229.2-63.2-314.2-148-80.8-80.8-130.2-181.2-146.8-299-3.8-28-3.2-103 1.2-132 8.6-57.2 23-104.4 47.2-154.4l15.6-32.4-32.6-101.4c-18-56-33.4-105.2-34.2-109.4-4-24.8 19.8-48.6 44.6-44.6 4.2 0.8 53.4 16.2 109.4 34.2l101.4 32.6 32.4-15.6c50-24.2 97.2-38.6 154.4-47.2 29-4.4 104-5 132-1.2 117.8 16.6 217.4 65.6 298.6 146.4 79.4 79.4 128 176.4 145.8 292 4.8 32.2 4.8 107.8 0 140-17.8 115.4-66 211.8-145.4 291.6-78.8 79-177 128.2-290 145.4-25 3.8-93.6 5.4-119.4 3zM552.2 878c66-6.6 138.8-31.2 188.6-64 89-58.2 150-136.2 181-231.2 23.8-72.8 28.2-142.2 14-217.8-9-47-33.4-108.8-57.8-145.8-57.6-87.8-135-149-228.4-180.2-121.4-40.6-245.2-27-361.6 39.4-22.4 12.8-22.8 12.6-111-16-40.6-13.2-74.2-24-74.4-23.8s10.6 33.8 23.8 74.4c29.8 91.4 29.4 87.4 12.2 118-36.8 65.4-54.8 128-58 202-8 189 115.2 365.4 296.6 424.8 58.6 19.2 117.2 25.8 175 20.2zM294.4 494.6c-4.6-1.6-12.4-6.8-17.2-11.8-20-20-20-49.6 0-69.6s49.6-20 69.6 0c37.6 37.4-2.2 99.2-52.4 81.4zM494.4 494.6c-4.6-1.6-12.4-6.8-17.2-11.8-20-20-20-49.6 0-69.6s49.6-20 69.6 0c37.6 37.4-2.2 99.2-52.4 81.4zM694.4 494.6c-4.6-1.6-12.4-6.8-17.2-11.8-20-20-20-49.6 0-69.6s49.6-20 69.6 0c37.6 37.4-2.2 99.2-52.4 81.4z" />
<glyph unicode="&#xe90c;" glyph-name="filter" d="M28.4 957.8c-9.4-2.8-21.8-15.8-24.6-26.2-3-11.2-1-48.2 4.4-78.8 12.8-74 48.6-145.8 99.4-199.2 8.4-9 59.6-55.6 113.8-103.8 102.2-91.2 110.6-99.6 121.8-124.8 12.4-28.2 11.6-14 12.8-248l1-214 4.6-7.4c9.2-14.8 27.2-22.4 43.4-18 6.2 1.6 48 28.4 131.6 84.2 67.2 44.8 124 83.4 125.8 85.4 9.6 11 9.6 10.4 9.6 146.2 0 139.2 0.2 141.2 11.6 168.4 11.8 27.8 18.4 34.8 123 128 54.2 48.2 105.4 94.8 113.8 103.8 48.4 51.6 81.2 114.2 96.8 185 4 17.4 5.4 30.6 6.2 58.8l1.2 36.6-5.2 7.8c-2.8 4.2-8.6 9.8-12.8 12.4l-7.6 4.8-482 0.4c-300.4 0.2-484.4-0.4-488.6-1.6zM940.6 863.6c-6.4-36.2-26.2-85-47.2-116-19.4-29-35.6-45.2-132.4-131.2-53.8-47.8-102.4-91.6-107.8-97.2-21.2-22.4-39.8-53.6-50-84-10.4-31.4-11.2-42.4-11.2-166.4v-114.2l-77-51.2c-42.4-28.4-77.4-51.4-78-51.4-0.4 0-1.2 78-1.6 173.6-0.8 188-0.2 179.2-12 213.4-9.8 28.4-28 58.4-48.8 80.2-5.2 5.6-53.6 49.4-107.6 97.2-59.4 52.8-103.2 93.4-111 102.8-36.4 43.8-61.8 97.8-69.6 149.4l-1.8 11.4h858.8l-2.8-16.4z" />
<glyph unicode="&#xe90d;" glyph-name="star" d="M497 877.2c-3.2-1.4-7.4-4.4-9.2-6.4-2-2.2-31-60-64.8-128.8s-62-125.6-62.8-126.4c-0.6-0.6-64.2-10.4-141.2-21.6-100.2-14.4-141.8-21.2-146-23.8-13.4-7.8-19.4-28-12.2-41.8 1.6-3 43.2-44.8 92.6-92.8 49.2-48 94.8-92.6 101.2-99l11.4-11.8-24-139.8c-25.2-147.6-25.2-146.8-17-158.6 5.4-7.4 18.4-13 28.2-11.8 6 0.6 43 19 132.6 66.2 68.4 35.8 125.2 65.2 126.4 65.2 1 0 57.8-29.4 126.2-65.2 89.2-47 126.4-65.6 132.4-66.2 10-1.2 23.2 4.6 28.2 12.2 8 12.2 8.2 10.8-17 158l-24 140 11.4 11.8c6.4 6.4 52 51 101.2 99 49.4 48 91 89.8 92.6 92.8 7.2 13.8 1.4 34-12.2 42-4.4 2.4-44.8 9-146 23.8-77 11.2-140.6 20.8-141.2 21.6-0.8 0.6-29 57.4-62.8 126.2s-63 126.6-64.8 128.8c-7.4 8.6-26.8 11.8-39.2 6.4zM566 669.4c39-78.2 54.4-107.4 58.4-110.2 6.2-4.4 14.2-5.8 151.2-25.4 48.6-7 88.4-13.4 88.4-14 0-0.8-37.4-37.6-83-82s-84.4-83.6-86-87.2c-1.6-3.4-3-9.2-3-13 0-3.6 8.6-56.8 19.2-118.4 10.4-61.4 18.6-112 18-112.6-0.4-0.4-47.6 23.6-104.6 53.6-91.2 48-104.6 54.6-112.6 54.6-7.8 0-21.8-6.8-112.6-54.6-57-30-104.2-54.2-104.6-53.6-0.6 0.6 7.6 51.2 18 112.6 10.6 61.6 19.2 114.8 19.2 118.4 0 3.8-1.4 9.6-3 13-1.6 3.6-40.4 42.8-86 87.2s-83 81.2-83 82c0 0.6 52 8.8 115.4 18 63.6 9 118 17.8 121 19.4 2.8 1.4 7 4.8 9 7.4s26.6 51.2 54.6 108c28 56.8 51.4 103.4 52 103.4s24.8-48 54-106.6z" />
<glyph unicode="&#xe90e;" glyph-name="star1" d="M498.8 932c-3.6-2.2-8.6-7.4-11.2-11.6-2.8-4-35.8-70-73.4-146.4-37.8-76.4-69.6-140-71-141.2-1.2-1.2-71.8-12.4-156.8-24.6-85-12.4-159-23.8-164.6-25.6-23.2-7.6-27.8-27.6-11.4-48 3.6-4.4 56.6-56.8 118-116.4 79.8-77.6 111-109.2 110.4-111.6-4-16.6-52.8-308.4-52.8-315.4 0-25.6 16.8-37.2 40.4-27.8 4.8 1.8 71 36.2 147.2 76.2l138.4 72.8 138.6-72.8c76-40 142.2-74.4 147-76.2 23.8-9.6 40.6 2 40.2 28 0 6.4-12 80.4-26.6 164.6l-26.8 153 75.4 73.8c147.6 145 159.6 157.4 162.2 166.6 4.6 15.2-3 27.8-19.8 33.2-5.6 1.8-79.6 13.2-164.6 25.6-85 12.2-155.6 23.4-157 24.6-1.2 1.2-33 64.8-70.6 141.2s-71.4 142.8-74.8 147.4c-11.2 14.8-24 18.6-36.4 10.6zM630.4 559c3-1 248.4-37 252.8-37 1.6 0 2.8-0.8 2.8-1.6s-25.8-26.6-57.4-57.4c-31.8-30.6-73.6-71.4-93-90.4l-35.6-34.6 16.2-94.4c8.8-52 18.6-109.8 21.8-128.4s5.6-34.2 5.2-34.6c-0.4-0.4-47.6 24-105 54.4-57.2 30.2-109.2 57.4-115.2 60.4l-11 5.4 0.2 296.2v296l57.8-116.6c31.8-64 58.8-116.8 60.4-117.4z" />
<glyph unicode="&#xe90f;" glyph-name="star2" d="M504.6 933.6c-5.4-2.6 0.2 9.8-77.6-170.6-36.2-83.6-66.2-152.8-67-153.6-1-1-80-9.2-176-18.2l-174.6-16.4-4.6-5.6c-6.8-7.8-6-14 2.6-23 4.2-4.2 64-57.4 133-117.8l125.2-110.2-1.6-7.6c-1-4.2-18-80.2-37.8-169-20-88.8-36.2-163.8-36.2-166.6 0-6.2 8.2-15 14-15s-1.6-4.2 160.6 91.8c80.2 47.4 146.6 86.2 147.6 86.2s69.6-40.2 152.4-89.2c131-77.6 151.2-88.8 156.4-88 7.2 1.4 13 7.8 13 14.6 0 2.8-16.2 77.6-36.2 166.2-19.8 88.8-36.8 164.8-37.8 169l-1.6 7.4 131.8 116.2c89 78.4 132.2 117.6 133 121 1.6 6.4-1.6 13.8-7.6 17.4-3.2 2-52.8 7.4-170.6 18.2-91.2 8.4-169.4 16-173.6 16.8l-7.6 1.4-68 157c-37.2 86.4-68.8 159-70 161.2-2.2 4.4-9.8 9-14.4 8.6-1.4 0-4.4-1-6.8-2.2z" />
<glyph unicode="&#xe910;" glyph-name="back" d="M467.8 892.6c-12.8-6.2-459.2-326.6-463-332-8-12.4-5.4-27.8 6.6-38.8 6-5.6 441-316.4 452.6-323.6 14.8-9 34.8-3.4 42.4 11.8 3.2 6.4 3.6 15 3.6 91v84.2l13.6-0.8c22-1 59.8-6.2 86.4-11.6 53.6-11 119.4-37.8 163-66.2 93.2-61 161-156 187-261.6 7.6-30.6 10.2-35.8 21-41 10.4-5 15.6-5 26.2 0.2 6.4 3 9.6 6.4 13 13.2 4.2 8.8 4.4 10.6 3.2 47.4-3.8 112.4-22.2 208-55.8 291.2-32.2 79.2-71.8 138.8-130.8 196-50.8 49.2-108.6 86-177.4 113-41 16-100 31-134.8 34.2l-14.4 1.4-0.6 87.6c-0.6 84.8-0.8 87.6-4.8 93-10 13.4-24 17.8-37 11.4z" />
<glyph unicode="&#xe911;" glyph-name="lock" d="M512 864c-123 0-224-101-224-224v-96h-96v-512h640v512h-96v96c0 123-101 224-224 224zM512 800c88.125 0 160-71.875 160-160v-96h-320v96c0 88.125 71.875 160 160 160zM256 480h512v-384h-512z" />
<glyph unicode="&#xe912;" glyph-name="hide" d="M852 830c-2.8-1.2-29.4-26.6-59.4-56.4l-54.2-54.2-25.8 10c-41.6 16.6-81.2 27-127.6 34-36.8 5.4-114.2 4.8-152.8-1.2-101.8-15.6-191.8-56.2-277-124.8-27-21.6-78.2-73.2-100-100.4-23.6-29.8-52.8-73.6-54.4-82-2.2-12 0.8-20 17.2-44.6 48-72.6 116.8-141.8 186-187.4 11.6-7.6 21.4-14 21.8-14.4 0.6-0.4-20.8-22.6-47.2-49.2-41.4-41.4-48.4-49.4-49.6-56-2.2-12 0.6-21.4 8.8-29.6s17.6-11 29.6-8.8c6.8 1.2 45.4 39.2 366.2 359.6 263.4 263.4 359 360.2 360.6 365.2 4.4 13.4-0.4 27.8-12.6 36.8-6.2 4.6-22.2 6.4-29.6 3.4zM580 699c34.4-5.2 72.6-15.2 102.8-27l6-2.2-65.6-65.6-5.4 3.8c-10.4 7.6-43 22-58.8 26.4-21.2 5.6-68.8 6.2-89.8 1-36.6-9.2-65.6-25.6-92.4-52.2-26.6-26.8-43-56-52.2-92.4-5.4-21.6-4.8-66.8 1-88.8 4.6-16.6 17.8-46.8 26.2-59l4-6.2-81.2-81.2-19 11.8c-66.4 41.8-133.8 105.4-175.6 165.8l-10.2 14.8 10 14.6c35.4 51.2 97 112.8 149.2 149.6 70.4 49.6 153.6 81 236.2 89.6 24.8 2.6 89.6 1 114.8-2.8zM540.4 572.2c12.4-3.2 35.6-12.8 35.6-14.8 0-0.2-39-39.4-86.8-87.2l-86.8-86.8-5.4 10.4c-7.2 14.6-13 38.2-13 54 0.2 81.8 78.8 144.2 156.4 124.4zM827.4 628.4c-11.8-11.8-21.4-22.4-21.2-23.4 0-1.2 7.8-8 17.4-15.4 41-31.4 95-89 124.2-132l6.4-9.6-8.2-12c-34.4-50.8-94.2-111.4-147-149.2-90.4-64.8-196-97.8-301-94-32.8 1-43 2.2-76.6 8.4l-17.8 3.4-25.8-25.8c-18.6-18.6-25-26-23-27.2 5.6-3.2 53-13.8 80.2-18 37.4-5.8 113.6-6.2 150-1 129 19 236.6 74.6 335 173.2 35.2 35.4 58.2 63.2 84 101.8 25.8 38.4 25.8 41.8 2.4 77.6-22.4 34-53 71.4-85.4 104-27.4 27.6-65.6 60.8-69.8 60.8-1.2 0-12-9.6-23.8-21.6zM667.2 468.2l-27.6-27.6-2.6-15.8c-3.2-18.4-14.6-42.8-26.8-57.4-18.8-22.6-47.6-39.6-75-44.4l-15.8-2.6-28.2-28.2c-15.4-15.4-27.4-28.6-26.8-29.2 2.4-2.4 33-6.8 47.8-7 50.6-0.2 97.2 19.6 134.8 57 38.6 38.6 55.6 79.2 55.8 133 0.2 25-3.2 50-6.4 50-0.8 0-13.8-12.4-29.2-27.8z" />
<glyph unicode="&#xe913;" glyph-name="view" d="M474 772.8c-117.8-14-227-68.4-343-171-40.6-35.8-107.4-108-124.6-134.8-7.2-11.2-7.2-26.8 0-38 9.2-14.4 48-59.4 75.6-87.6 98.6-101.6 208.4-172.8 312-202.4 45-12.8 67.8-15.8 118-15.8s73 3 118 15.8c121.4 34.8 254.8 129.4 361.2 256.6 29.2 34.8 31.6 39 31.6 52.4s-2.4 17.6-31.6 52.4c-105.8 126.2-238.8 221-359.2 256-40.4 11.8-67.2 15.6-111 16.4-22 0.6-43.2 0.4-47 0zM561 703c94.2-14.2 196.8-69.6 295.4-159.8 30.2-27.4 89.6-90.8 89.6-95.4 0-0.6-6.8-9.2-15.4-18.8-116.4-133.2-248.8-217.8-369.6-236-25.6-3.8-72.4-3.8-98 0-87 13.2-179.8 60.6-272 138.8-33.4 28.2-113 110.2-113 116.2 0 0.8 6.8 9.4 15.4 19 115.6 132.2 248 217.2 367.8 235.8 24.4 3.8 75 3.8 99.8 0.2zM484 648.8c-86.6-15.8-148.2-72.2-169.2-154.8-5.4-21.2-5.4-70.8 0-92 19.4-76 75.2-131.8 151.2-151.2 21.2-5.4 70.8-5.4 92 0 76 19.4 131.8 75.2 151.2 151.2 3 11.6 3.8 22 3.8 46s-0.8 34.4-3.8 46c-19 75-73.2 130-148.2 150.4-13.6 3.8-64.6 6.6-77 4.4zM544 578.8c37.4-8.4 71.6-35.8 89-71.8 10.4-21.4 13.6-37.8 12.6-65-1-25.8-6-43.2-18-63.6-8.4-14.4-31.6-37.6-46-46-42.2-24.8-97-24.8-139.2 0-14.4 8.4-37.6 31.6-46 46-24.8 42.2-24.8 97 0 139.2 8.4 14.4 31.6 37.6 46 46 30.2 17.8 65.6 23.2 101.6 15.2z" />
<glyph unicode="&#xe914;" glyph-name="check" d="M770 737.6c-13.8-4-33.6-19.8-65.2-52-38.4-39.2-89.6-95.4-118.2-129.6-29.2-34.8-108.4-143-150.2-205.2-14.8-22-22.2-31-27.4-34-9.2-5-10.8-3.8-27 18.2-28.8 39-75 100.6-82.8 109.8-19.4 23.6-38 27.2-66.4 13.4-8.6-4.2-18.4-10.6-21.8-14-5.4-5.8-6-7.8-6-19.2 0-11.6 1.2-14.8 13.4-39.2 17.4-35.2 33.8-60.6 68.6-106.8 51.4-68.4 85.6-105.2 107.8-116 13-6.4 27.2-7.2 36.6-2.2 11.4 5.8 25.6 24.6 48.6 64.6 34 58.8 72 114.6 143 209.6 54.6 73.2 88.4 114 129.4 156.4 43.2 44.8 62.8 68.4 65.6 78.6 4.4 15.8 0.8 33.2-9.8 48.6-11.6 17-24 23.2-38.2 19z" />
<glyph unicode="&#xe915;" glyph-name="edit" d="M779.2 871c-16.6-4.2-38.2-15.2-50.4-25.4-5.6-4.8-28.8-27.6-51.4-50.8l-41.2-42 180.8-180.8 46.4 46.4c50.2 50.8 59.4 62.6 68 88.4 4.6 13.8 5.4 19.6 5.4 39.2-0.2 19.8-0.8 25.2-5.6 39-13.8 40.2-44.4 70.8-83.2 83.2-17.2 5.6-52 7-68.8 2.8zM393.6 510.6l-181.4-181.6-62.4-126c-65.8-133-67-136-61.8-152 3.2-9.6 12.6-20.2 22.6-25.4 6.4-3.2 10.6-3.8 20.2-3.2 11.2 1 22.6 6.2 137.2 63.2l125 62 361.8 362.2-18.8 19.6c-14.2 14.8-160.6 162.6-161 162.6 0 0-81.6-81.6-181.4-181.4zM491.8 101.4c-4.8-2.6-11.4-8.6-14.8-13.2-5.4-7.8-6-10-6-24 0-13.6 0.6-16.4 5.4-23.4 3-4.2 8.8-10 13-12.8l7.4-5h414.4l7.4 5c4.2 2.8 10 8.6 13 12.8 4.8 7 5.4 9.8 5.4 23.2s-0.6 16.2-5.4 23.2c-3 4.2-8.8 10-13 12.8l-7.4 5-410.4 1-9-4.6z" />
<glyph unicode="&#xe916;" glyph-name="next" d="M344.2 742.8c-18.8-9.4-27.4-29.4-21.4-49.8 2.2-7.4 5.8-12.6 13.6-20.2 5.8-5.6 66.6-58 135.2-116.6 68.4-58.6 124.4-107 124.2-107.8 0-0.8-55.4-48.6-123-106.4-155.4-132.6-148-125.8-151.8-138.6-10.8-36.2 26.8-67.8 59.6-50.2 11.8 6.4 309.8 262 316.6 271.6 12.8 18 10.2 39.2-6.6 55.6-5.2 5-76.4 66.2-158 136-111.2 95.2-150.2 127.4-156.2 129.2-12 3.6-20.6 2.8-32.2-2.8z" />
<glyph unicode="&#xe917;" glyph-name="calendar" d="M232 926.6c-15.4-6.2-21.8-18.8-22-41.8v-16.2l-28.4-1c-25.4-0.8-30.6-1.6-46.2-7-23.6-8.2-37.2-16.6-56.4-35-18.8-18-30.4-36.2-39.6-62.4l-6.4-18.2-0.6-287c-0.6-311-0.8-302.6 10.2-330 8.4-20.4 17.6-34.2 34.4-51s30.6-26 51-34.4c26.2-10.4 28.4-10.6 219.8-10.6h177.2l12-8.8c61.4-46 144.6-64.6 222-49.4 177.4 34.4 279.6 223.2 211.2 389.4-9 22-21.4 44-33 59l-8.2 10.8-2 312-4.8 14c-9 27.2-19.6 44.6-39.2 64-20.6 20.6-33.6 28.8-58.4 37.6-15.6 5.4-20.8 6.2-46 7l-28.6 1v16.2c-0.2 28.6-10.6 42.2-32.4 42.2-12.2 0-18.8-3.4-26.4-13.8-3.4-4.4-4.4-9-4.8-25.4l-0.8-19.8h-411.2l-0.8 19.8c-0.6 21.4-2.6 26.4-14 34.8-5.4 4-22 6.4-27.6 4zM210.4 785.2c0.4-15.4 1.4-20 4.8-24.6 14.6-19.8 42.2-19.6 53.8 0.4 4.2 7.2 5 10.8 5 25.6v17.4h411.6l0.8-19.4c0.6-17 1.2-20.4 5.4-26 13.2-17.8 39.2-16.8 53 2 3.4 4.6 4.4 9.2 5 24.8l0.6 19 24.6-0.8c23.4-0.8 25.2-1 39.4-8.2 33-16.2 49.6-45.2 49.6-86.8v-18.6h-768v18.6c0 32.2 9 54.6 29 73 9.6 8.8 28.8 19 39 21 2.8 0.4 14.2 1 25.4 1.2l20.2 0.2 0.8-18.8zM864 560.8v-65l-8.4 5.2c-25.6 16-61.4 30-95.2 37.4-26.2 5.8-82.6 6.2-109.2 1-58.8-11.8-108.4-38.2-150.4-80.2-41.2-41.4-66.8-88.4-79.2-145.8-6.2-29.2-6.2-85.6 0-113.8 7.4-34.2 19.6-65.2 36.4-93.2l6.4-10.6-301.4 1.2-11 4.4c-22.2 9.2-41.4 28.4-50.6 50.6l-4.4 11-0.6 231.6-0.4 231.4h768v-65.2zM739 477c93.4-15 165.2-84.8 185.4-180 3.2-15.4 3.2-66.6 0-82-19.6-92.2-87.2-159.8-179.4-179.4-15.4-3.2-66.6-3.2-82 0-69.6 14.8-125.2 56.2-156.6 116-34.6 66.2-35 139.4-1.4 206.4 42.8 85.4 139.2 134.4 234 119zM691 413.2c-7.4-3.4-14-10.4-16.8-17.8-3.6-9.2-3-143.8 0.6-152 1.6-3.6 19.2-22.8 39.4-42.8 30-29.6 38.4-36.6 45.4-38.8 23.2-6.8 45.4 15.4 38.6 38.8-2 6.8-8.6 14.4-32.4 38.4l-29.6 30-0.6 63.4c-0.6 60.4-0.8 63.6-4.8 68.8-2.2 3-6.4 7.4-9.2 9.4-6.8 5-22.6 6.4-30.6 2.6z" />
<glyph unicode="&#xe918;" glyph-name="close" d="M475 915.8c-208.6-17-382-170.6-422.8-374.8-19.2-96.4-8.6-192.8 31.4-284.4 44.6-102 133.6-191.2 236.4-236.6 158.2-70 337.2-49.6 475.8 54.4 36.4 27.4 79.8 73.4 105.8 112 105.8 158.2 105.8 364.2 0.2 522-18.8 28.2-32.8 45-60.6 72.6-46.8 46.4-95 78.2-154.8 102.2-45.6 18.4-91.6 29-142.4 32.8-30 2.2-39.8 2.2-69-0.2zM378 637.8c6.6-3 25.6-20.6 71.4-66.4l62.6-62.2 63.4 63c70.4 70 72.4 71.6 93 69.2 27.2-3.2 44.2-31.2 34.6-56.8-3-8-13.8-20-66.8-73l-63-63.6 63-63.4c53-53.2 63.8-65.2 66.8-73.2 9.6-25.6-7.4-53.6-34.6-56.8-20.6-2.4-22.6-0.8-93 69.2l-63.4 63-62.6-62.2c-41.4-41.6-64.8-63.4-69.8-65.6-16.2-6.6-38.2-2.4-48.8 9.4-10.8 11.8-14.2 31.8-7.8 47.2 2.2 5 24 28.4 65.6 70l62.4 62.4-62.4 62.6c-45.8 45.8-63.4 64.8-66.4 71.4-7.6 17-4.6 33.8 8.8 47.2 13.2 13 30.2 16.2 47 8.6z" />
<glyph unicode="&#xe919;" glyph-name="exit" d="M65 957.2c-29.6-7.4-54.2-31.8-62.2-62-2.2-8.4-2.8-76.8-2.8-404.2 0-431.4-0.6-406.2 11.4-427 7.4-12.4 22.2-26.8 33.8-32.6 5.4-2.6 70-25 143.8-49.6l134-44.8h18c22 0 34.4 4 51 16.2 13.4 9.8 24.2 24.6 30 41.4 3.2 9.2 4 16.4 4 40.4v29h75.6c57 0 78.6 0.8 88.6 2.8 41.4 8.8 78.2 44.6 88.8 86.2 4.4 17.4 4.4 226.2 0 235-6.4 12.4-23 19.8-36.6 16.2-9.2-2.6-19.8-13-22.4-22.4-1.2-4-2-48.4-2-109.8v-103l-4.8-10.2c-2.6-5.4-8.4-13.2-13.2-17.4-15.2-13-18-13.4-100.4-13.4h-73.6l-0.4 341.6-0.6 341.4-6.2 13.2c-14 29.4-27.6 38.8-84 57.6l-41.8 14h140.2c155.8 0.2 150.6 0.6 166.8-13.2 4.8-4.2 10.6-12 13.2-17.4l4.8-10.2v-103c0-63.4 0.8-105.8 2-110.4 2.8-9.8 15.2-20.8 25.8-22.6s25.2 5 31.6 14.8l4.6 6.8v109.2c0 120.4 0 121.2-12.6 146.2-4.2 8.4-11.8 18.4-21.6 28.4-12.2 12.6-18.4 17-32 23.4-9.2 4.4-22.2 8.8-28.6 10-18 3.4-508.8 2.8-522.2-0.6zM221.4 851.8c111-37 133.2-45 136.6-49.2 4-5.2 4-7.6 4-397v-392l-6.8-6.8c-4.6-4.6-8.6-6.8-12.6-6.8-5.4 0-258.8 83.4-268 88.2-2.2 1.2-5.8 5-7.6 8.6-3 5.6-3.2 38.2-2.6 396.4 0.6 387.2 0.6 390.4 4.6 394.8 4.4 5 10 7.6 16 7.8 2.2 0.2 63.6-19.6 136.4-44zM819 701.2c-8.2-3.6-16.6-13.8-18.2-22.2-3.2-17.2-2.8-17.8 57.8-78.4l56.4-56.6h-336l-7.8-4.6c-21.8-12.2-21.2-44.2 1-55.4 7.4-3.8 12.4-4 175.2-4h167.6l-56.4-56.4c-60.8-61-61-61.4-57.6-79 1.8-9.8 13.8-21.8 23.6-23.6 18.2-3.4 15.4-5.8 108 86.6 47.2 47 87 87.8 88.6 90.8 3.6 7 3.6 20.2 0 27.2-4.6 8.4-171.4 174-177.8 176.4-7.6 2.8-17 2.4-24.4-0.8z" />
</font>
</defs>
</svg>
